<svg id="Layer_1" data-name="Layer 1" xmlns="http://www.w3.org/2000/svg" viewBox="0 0 539.31 539.31"><defs><style>.cls-1{fill:#42bcc8;}.cls-2,.cls-6{fill:#ebebeb;}.cls-3{fill:#434a54;opacity:0.15;}.cls-4{fill:#dad9d8;}.cls-5{fill:#414242;}.cls-6{stroke:#221f1f;stroke-miterlimit:10;}.cls-7{fill:#fff;}.cls-8{fill:#868fbd;}.cls-9{fill:#fad565;}.cls-10{fill:#f2b940;}.cls-11{fill:#69c9d3;}.cls-12{fill:#797fa6;}</style></defs><g id="screen-design"><circle id="label" class="cls-1" cx="269.66" cy="269.66" r="269.66"/><g id="screen-design-2" data-name="screen-design"><g id="screen"><polygon class="cls-2" points="308.34 349.21 230.96 349.21 230.97 424.68 308.34 424.68 308.34 349.21"/><polygon class="cls-3" points="308.34 349.21 230.96 349.21 230.97 387.09 308.34 416 308.34 349.21"/><rect class="cls-4" x="217.62" y="420.14" width="104.06" height="6.46"/><path class="cls-5" d="M460.76,228.74H151.24a12.94,12.94,0,0,0-12.89,12.9V422.19h335.3V241.64A12.94,12.94,0,0,0,460.76,228.74Z" transform="translate(-36.34 -98.77)"/><path class="cls-6" d="M139.16,422.19v38.68A12.9,12.9,0,0,0,152,473.76h307.9a12.89,12.89,0,0,0,12.82-12.89V422.19Z" transform="translate(-36.34 -98.77)"/><path class="cls-4" d="M306,441.53a6.45,6.45,0,1,0,6.45,6.45A6.44,6.44,0,0,0,306,441.53Z" transform="translate(-36.34 -98.77)"/><polygon class="cls-7" points="425.74 142.88 425.74 310.53 113.58 310.53 113.58 142.88 425.74 142.88 425.74 142.88"/></g><g id="design"><path class="cls-8" d="M306,307.31a46.24,46.24,0,0,1,25.81-7.84,47.69,47.69,0,0,1,20.65,5.16v-5.16a46.46,46.46,0,0,0-92.92,0v5.16a47.69,47.69,0,0,1,20.65-5.16A46.24,46.24,0,0,1,306,307.31Z" transform="translate(-36.34 -98.77)"/><path class="cls-9" d="M352.46,304.63c-1.66,16.28-11.76,29.24-25.81,36.13v5.17A46.56,46.56,0,0,1,306,384.63a46.36,46.36,0,1,0,46.46-80Z" transform="translate(-36.34 -98.77)"/><path class="cls-10" d="M306,307.31c11.19,7.49,19.2,19.34,20.65,33.45,14.05-6.89,24.15-19.85,25.81-36.13a47.69,47.69,0,0,0-20.65-5.16A46.24,46.24,0,0,0,306,307.31Z" transform="translate(-36.34 -98.77)"/><path class="cls-11" d="M285.35,345.93v-5.17c-14.05-6.89-24.15-19.85-25.81-36.13a45.65,45.65,0,0,0-25.8,41.3A46.54,46.54,0,0,0,306,384.63,46.56,46.56,0,0,1,285.35,345.93Z" transform="translate(-36.34 -98.77)"/><path class="cls-12" d="M285.35,340.76c1.45-14.11,9.46-26,20.65-33.45a46.24,46.24,0,0,0-25.81-7.84,47.69,47.69,0,0,0-20.65,5.16C261.2,320.91,271.3,333.87,285.35,340.76Z" transform="translate(-36.34 -98.77)"/><path class="cls-1" d="M326.65,345.93v-5.17a43.83,43.83,0,0,1-41.3,0v5.17A46.56,46.56,0,0,0,306,384.63,46.56,46.56,0,0,0,326.65,345.93Z" transform="translate(-36.34 -98.77)"/><path class="cls-7" d="M306,307.31c-11.19,7.49-19.2,19.34-20.65,33.45a43.83,43.83,0,0,0,41.3,0C325.2,326.65,317.19,314.8,306,307.31Z" transform="translate(-36.34 -98.77)"/></g></g></g></svg>