<svg id="Layer_1" data-name="Layer 1" xmlns="http://www.w3.org/2000/svg" viewBox="0 0 532.16 532.16"><defs><style>.cls-1{fill:#e9ccad;}.cls-2{fill:#dcdbdb;}.cls-3{fill:#fbd765;}.cls-3,.cls-4{stroke:#231f20;stroke-miterlimit:10;}.cls-4{fill:#f5bb42;}.cls-5{fill:#414141;}.cls-6{fill:#69cad6;}.cls-7{fill:#fff;}</style></defs><g id="vector"><circle id="label" class="cls-1" cx="266.08" cy="266.08" r="266.08"/><g id="vector-2" data-name="vector"><path class="cls-2" d="M347.73,570.5a15,15,0,0,1-14.93,14.92H288a15,15,0,0,1-14.92-14.92V548.1h74.64Z" transform="translate(-44.33 -165.16)"/><path class="cls-3" d="M295.48,463c0-6.94,3.74-13.27,11.2-14.93V354.82h-3.74c0,33.59-37.78,89.57-59.71,108.22,0,0,29.86,37.32,29.86,70.9h37.32V478C302.94,478,295.48,471.29,295.48,463Z" transform="translate(-44.33 -165.16)"/><path class="cls-4" d="M317.87,354.82h-3.74v93.29c7.46,1.66,11.21,8,11.21,14.93,0,8.25-7.47,14.93-14.93,14.93v56h37.32c0-33.58,29.85-70.9,29.85-70.9C355.66,444.39,317.87,388.41,317.87,354.82Z" transform="translate(-44.33 -165.16)"/><rect class="cls-5" x="228.76" y="368.01" width="74.64" height="14.93"/><path class="cls-6" d="M456,440.37a6,6,0,0,1-6-6c0-58.42-41.52-105-103.31-115.79a6,6,0,1,1,2.07-11.78C416.47,318.69,462,370,462,434.39a6,6,0,0,1-6,6Z" transform="translate(-44.33 -165.16)"/><path class="cls-6" d="M164.19,440.37a6,6,0,0,1-6-6c0-64.43,45.49-115.7,113.21-127.57a6,6,0,0,1,2.06,11.78C211.69,329.43,170.17,376,170.17,434.39a6,6,0,0,1-6,6Z" transform="translate(-44.33 -165.16)"/><polygon class="cls-6" points="235.49 153.27 144.54 153.27 144.54 141.31 235.49 141.31 235.49 153.27 235.49 153.27"/><polygon class="cls-6" points="389.29 153.27 300.28 153.27 300.28 141.31 389.29 141.31 389.29 153.27 389.29 153.27"/><path class="cls-7" d="M458.75,312.46a14.84,14.84,0,1,1-14.84-14.84A14.83,14.83,0,0,1,458.75,312.46Z" transform="translate(-44.33 -165.16)"/><path class="cls-5" d="M443.91,333.27a20.82,20.82,0,1,1,20.82-20.81,20.83,20.83,0,0,1-20.82,20.81Zm0-29.67a8.86,8.86,0,1,0,8.86,8.86,8.86,8.86,0,0,0-8.86-8.86Z" transform="translate(-44.33 -165.16)"/><path class="cls-7" d="M191.72,312.46a14.83,14.83,0,1,1-14.82-14.84A14.82,14.82,0,0,1,191.72,312.46Z" transform="translate(-44.33 -165.16)"/><path class="cls-5" d="M176.9,333.27a20.82,20.82,0,1,1,20.8-20.81,20.84,20.84,0,0,1-20.8,20.81Zm0-29.67a8.86,8.86,0,1,0,8.85,8.86,8.86,8.86,0,0,0-8.85-8.86Z" transform="translate(-44.33 -165.16)"/><rect class="cls-7" x="236.42" y="117.88" width="59.33" height="59.35"/><path class="cls-5" d="M346.06,348.37H274.75V277.06h71.31v71.31Zm-59.34-12h47.37V289H286.72V336.4Z" transform="translate(-44.33 -165.16)"/></g></g></svg>